<svg xmlns:svg="http://www.w3.org/2000/svg" xmlns="http://www.w3.org/2000/svg" xmlns:xlink="http://www.w3.org/1999/xlink" version="1.0" width="130.85714721679688" height="133.7142791748047" xml:space="preserve" style=""><rect id="backgroundrect" width="100%" height="100%" x="0" y="0" fill="none" stroke="none"/><g class="currentLayer" style=""><title>Layer 1</title><g id="svg_1" class="selected" fill-opacity="1" fill="#6534ff"><path d="M69.54666162947608,99.49589262325242 a5.535627444882738,6.461056969381039 0 0 1 -1.0170444124456473,-12.803406855335128 a19.80815069953665,23.11961767696277 0 0 0 14.77135932361535,-17.297317870783882 a5.521098238990657,6.444098814605759 0 1 1 10.785513840554552,2.7528737918535127 h0.009686137261387126 a30.884248657932815,36.047384333983274 0 0 1 -23.149868054715206,27.161311231737436 v-0.011305436516852221 a5.5114121017292685,6.432793378088908 0 0 1 -1.4190191087932125,0.20915057556176608 z" fill="#6534ff" id="svg_2" fill-opacity="1"/><animateTransform attributeName="transform" type="rotate" from="0 64 64" to="360 64 64" dur="1600ms" repeatCount="indefinite" transform="translate(64.04956817626953,64.21363830566406) scale(0.35824888944625854,0.4165499210357666) translate(-64.04956817626953,-64.21363830566406) translate(178.78509521484375,154.15560913085938) scale(1.1599421501159668,1.1922483444213867) translate(-178.78509521484375,-154.15560913085938) translate(154.13278198242188,129.29885864257812) scale(1.0275776386260986,1.069107174873352) translate(-154.13278198242188,-129.29885864257812) translate(149.99624633789062,120.9398193359375) scale(1.1341873407363892,1.0646388530731201) translate(-149.99624633789062,-120.9398193359375) "/></g></g></svg>